# xmcd
#
# Track frame offsets:
#	200
#	18450
#	33402
#	55867
#	75895
#	103760
#	120130
#	147217
#	165702
#	183717
#
# Disc length: 2763 seconds
#
# Revision: 0
# Processed by: cddbd v1.5.2PL0 Copyright (c) Steve Scherf et al.
# Submitted via: dBpowerAMP V4.0
#
DISCID=760ac90a
DTITLE=Jimmy Swaggart - His Voice (Makes the difference)
DYEAR=1994
DGENRE=Gospel
TTITLE0=His Voice Makes The Difference
TTITLE1=Jesus I'll Never Forget
TTITLE2=Jesus Wonderful Lord
TTITLE3=O Happy Day!
TTITLE4=There Is A River
TTITLE5=I'd Rather Have Jesus
TTITLE6=He Whispers Sweet Peace
TTITLE7=Free At Last
TTITLE8=I'm Going To the Meeting
TTITLE9=It Is No Secret
EXTD=
EXTT0=
EXTT1=
EXTT2=
EXTT3=
EXTT4=
EXTT5=
EXTT6=
EXTT7=
EXTT8=
EXTT9=
PLAYORDER=
